<?xml version="1.0" standalone="no"?>
<!DOCTYPE svg PUBLIC "-//W3C//DTD SVG 20010904//EN"
 "http://www.w3.org/TR/2001/REC-SVG-20010904/DTD/svg10.dtd">
<svg version="1.0" xmlns="http://www.w3.org/2000/svg"
 width="500.000000pt" height="500.000000pt" viewBox="0 0 500.000000 500.000000"
 preserveAspectRatio="xMidYMid meet">

<g transform="translate(0.000000,500.000000) scale(0.100000,-0.100000)"
fill="#000000" stroke="none">
<path d="M2270 3809 c-732 -38 -1231 -406 -1139 -841 14 -67 56 -160 98 -218
36 -51 182 -202 188 -196 2 2 -11 26 -30 53 -182 255 -164 538 47 761 223 235
588 366 1074 387 193 8 399 -14 662 -70 l25 -6 -25 12 c-84 37 -346 93 -510
108 -177 16 -244 18 -390 10z"/>
<path d="M3340 3754 c0 -5 12 -29 26 -53 49 -87 42 -152 -24 -215 -25 -23 -36
-27 -58 -22 -33 9 -98 71 -91 89 6 16 -12 32 -38 33 -11 0 -65 10 -120 22
-277 58 -609 59 -880 2 -524 -110 -835 -422 -749 -754 27 -104 70 -173 175
-278 104 -104 105 -108 22 -108 -40 0 -50 5 -87 43 -23 23 -49 53 -59 67 -16
24 -16 24 -2 -11 7 -20 19 -56 25 -81 15 -60 -5 -106 -68 -154 -50 -38 -49
-41 5 -19 47 20 108 19 145 -2 17 -10 48 -42 69 -72 21 -30 39 -52 39 -50 0 2
-11 31 -25 64 -41 100 -31 142 52 214 37 33 42 39 20 29 -27 -11 -30 -10 -62
28 -80 93 -135 236 -135 351 1 288 257 535 681 657 149 42 179 46 89 9 -118
-48 -237 -146 -302 -249 l-26 -40 -99 -11 c-164 -18 -232 -63 -190 -126 17
-26 134 -97 159 -97 32 0 19 16 -32 40 -46 22 -110 73 -110 90 0 18 44 44 97
56 65 15 153 18 153 6 0 -5 -10 -35 -21 -68 -32 -87 -33 -281 -2 -379 51 -162
171 -304 315 -374 88 -43 183 -72 233 -70 l30 1 -35 9 c-19 4 -53 12 -75 18
-22 6 -52 13 -67 17 -16 3 -46 24 -68 45 -39 38 -64 53 -40 24 17 -20 7 -19
-38 4 -36 18 -82 69 -82 90 0 6 -6 8 -13 5 -23 -8 -102 102 -92 128 3 7 -2 22
-10 33 -16 19 -16 19 -10 -5 5 -19 4 -22 -4 -10 -6 8 -11 34 -11 58 0 25 -4
41 -10 37 -5 -3 -12 7 -16 22 -3 15 -10 41 -15 57 -13 41 -11 130 3 144 6 6
11 36 10 68 -2 73 26 140 64 154 17 7 56 8 97 4 65 -6 68 -8 46 -20 -13 -7
-30 -13 -37 -14 -28 0 -162 -102 -162 -123 0 -5 20 9 44 31 46 43 169 107 220
116 28 5 286 -19 313 -29 9 -3 12 -91 12 -339 1 -348 -1 -359 -38 -323 -9 8
-12 8 -7 0 10 -18 -27 -21 -49 -4 -18 15 -19 15 -6 -1 11 -15 11 -19 -5 -24
-32 -12 -64 -46 -64 -70 0 -47 47 -74 146 -81 41 -3 74 -10 74 -14 0 -5 7 -9
16 -9 14 0 14 3 4 15 -10 13 -9 15 10 15 12 0 35 8 51 17 52 31 51 92 -1 115
-30 13 -36 26 -22 44 4 5 -1 1 -10 -9 -13 -13 -22 -16 -34 -9 -9 5 -25 7 -35
5 -18 -5 -19 8 -19 331 l0 336 23 0 c12 0 41 -5 65 -10 23 -6 59 -13 80 -16
20 -3 57 -10 82 -16 25 -5 56 -12 70 -14 28 -5 128 -31 177 -46 24 -7 33 -16
36 -36 l4 -27 2 27 c1 25 3 27 26 16 13 -6 29 -24 35 -41 13 -39 14 -188 0
-167 -7 11 -10 6 -10 -21 0 -20 -7 -49 -15 -66 -8 -17 -17 -45 -19 -62 -2 -17
-7 -35 -11 -39 -4 -4 -6 3 -3 14 3 12 2 28 -3 35 -6 10 -9 7 -9 -11 0 -15 -6
-32 -12 -39 -10 -11 -10 -13 0 -7 35 20 -17 -76 -61 -113 -15 -12 -17 -11 -17
6 0 10 6 25 13 32 8 9 8 12 0 7 -6 -3 -14 0 -16 6 -5 13 -11 -25 -8 -50 3 -20
-57 -87 -99 -111 -22 -12 -40 -18 -40 -12 0 5 5 13 10 16 15 10 12 69 -6 91
-15 19 -15 18 -5 -2 6 -11 9 -32 7 -45 -3 -32 -27 -79 -39 -79 -6 0 -18 -6
-26 -13 -9 -7 -36 -19 -61 -26 -25 -8 -56 -17 -70 -21 l-25 -8 26 -1 c35 -1
126 31 202 71 80 42 193 155 240 238 51 92 77 196 78 307 l1 91 37 -13 c21 -7
58 -23 82 -35 150 -76 143 -128 -23 -154 -38 -6 -67 -15 -65 -21 8 -21 170 8
208 38 9 6 19 22 23 33 14 44 -74 111 -215 164 -52 19 -57 24 -64 57 -8 46
-54 148 -89 199 -42 62 -135 152 -196 189 -67 40 -204 88 -237 82 -13 -2 -23
0 -23 4 0 5 -15 10 -32 11 -88 4 104 14 227 11 118 -2 372 -27 382 -37 9 -9
-48 -74 -82 -93 l-39 -22 29 -11 c41 -16 65 -39 85 -82 l16 -37 18 39 c9 22
31 50 48 62 18 12 28 16 24 9 -5 -7 22 3 59 23 106 56 157 47 235 -41 l42 -48
-25 50 c-53 107 -45 159 36 231 l52 46 -62 -31 c-34 -17 -74 -31 -88 -31 -42
0 -102 37 -140 86 -19 26 -35 43 -35 38z m-821 -323 c0 -83 -3 -152 -7 -155
-4 -2 -39 -6 -77 -7 -39 -1 -97 -8 -130 -15 -81 -18 -95 -17 -96 4 0 10 -3 12
-6 5 -3 -8 -25 -13 -59 -13 -44 0 -54 3 -55 18 -1 16 -2 16 -6 0 -6 -23 -61
-25 -69 -3 -6 14 -8 13 -20 -2 -7 -10 -13 -13 -14 -8 0 6 16 25 35 44 19 18
32 37 30 41 -3 4 10 22 29 38 19 17 33 32 30 34 -6 7 127 95 155 103 18 6 22
4 16 -6 -5 -8 1 -6 12 4 23 20 117 52 108 37 -10 -16 11 -11 25 5 7 9 19 14
26 11 7 -3 16 -1 19 4 4 6 17 10 30 10 l23 0 1 -149z m61 138 c0 -6 7 -9 15
-6 8 4 17 2 20 -4 4 -5 12 -9 18 -7 23 4 92 -14 109 -29 9 -8 21 -12 27 -9 13
9 80 -25 105 -53 11 -12 15 -21 11 -21 -5 0 1 -10 13 -23 12 -13 20 -26 17
-29 -3 -3 2 -11 11 -19 15 -12 16 -11 9 11 -4 14 -14 33 -23 43 -8 9 -11 17
-6 17 10 0 89 -90 89 -100 0 -3 10 -18 23 -34 12 -16 22 -25 22 -20 0 14 31
-35 35 -55 2 -11 10 -30 19 -43 23 -36 37 -108 21 -108 -8 0 -22 11 -32 23
-10 13 -23 26 -28 28 -6 2 -27 15 -47 28 -33 20 -38 28 -40 64 l-1 42 -4 -37
c-2 -21 -6 -38 -8 -38 -3 0 -33 11 -67 24 -51 20 -131 39 -213 51 -5 1 -40 3
-77 3 l-68 2 0 155 0 155 25 0 c14 0 25 -5 25 -11z m-60 -335 c0 -22 -4 -25
-22 -21 -13 3 -57 9 -98 13 -41 3 -79 9 -85 13 -12 8 60 18 143 19 61 2 62 1
62 -24z m138 20 c13 -4 23 -15 23 -28 2 -20 2 -19 6 2 4 19 9 22 31 18 15 -3
44 -8 65 -12 20 -3 40 -10 43 -15 3 -5 15 -9 27 -9 41 -1 107 -37 107 -60 0
-23 -2 -24 -70 -9 -36 8 -50 15 -50 27 0 14 -2 15 -9 3 -8 -12 -21 -12 -93 2
-74 15 -197 37 -205 37 -2 0 -3 11 -3 25 0 24 3 25 53 25 28 0 62 -3 75 -6z
m399 -151 c-3 -2 -23 1 -46 7 -34 9 -41 15 -41 36 l0 25 46 -31 c25 -18 43
-34 41 -37z m-456 -613 c45 -13 83 -52 75 -77 -21 -66 -224 -84 -288 -26 -37
33 -13 84 48 103 40 12 122 12 165 0z"/>
<path d="M2375 3490 c-3 -5 -1 -10 4 -10 6 0 11 5 11 10 0 6 -2 10 -4 10 -3 0
-8 -4 -11 -10z"/>
<path d="M2250 3475 c-7 -9 -10 -18 -7 -21 3 -3 10 4 17 15 13 25 8 27 -10 6z"/>
<path d="M2366 3455 c-3 -8 -1 -15 4 -15 6 0 10 7 10 15 0 8 -2 15 -4 15 -2 0
-6 -7 -10 -15z"/>
<path d="M2130 3425 c-20 -24 -6 -28 15 -5 10 11 13 20 8 20 -6 0 -16 -7 -23
-15z"/>
<path d="M2227 3423 c-4 -3 -7 -16 -6 -27 0 -19 1 -19 10 3 10 24 8 36 -4 24z"/>
<path d="M2362 3395 c0 -16 2 -22 5 -12 2 9 2 23 0 30 -3 6 -5 -1 -5 -18z"/>
<path d="M2103 3376 c-6 -7 -8 -18 -4 -24 4 -6 11 -1 18 14 12 26 5 31 -14 10z"/>
<path d="M2210 3350 c0 -11 2 -20 4 -20 2 0 6 9 9 20 3 11 1 20 -4 20 -5 0 -9
-9 -9 -20z"/>
<path d="M2086 3315 c-3 -8 -1 -15 4 -15 6 0 10 7 10 15 0 8 -2 15 -4 15 -2 0
-6 -7 -10 -15z"/>
<path d="M2655 3490 c3 -5 8 -10 11 -10 2 0 4 5 4 10 0 6 -5 10 -11 10 -5 0
-7 -4 -4 -10z"/>
<path d="M2780 3472 c0 -5 7 -15 15 -22 8 -7 15 -8 15 -2 0 5 -7 15 -15 22 -8
7 -15 8 -15 2z"/>
<path d="M2667 3440 c3 -11 7 -20 9 -20 2 0 4 9 4 20 0 11 -4 20 -9 20 -5 0
-7 -9 -4 -20z"/>
<path d="M2806 3415 c4 -8 8 -15 10 -15 2 0 4 7 4 15 0 8 -4 15 -10 15 -5 0
-7 -7 -4 -15z"/>
<path d="M2675 3390 c3 -5 8 -10 11 -10 2 0 4 5 4 10 0 6 -5 10 -11 10 -5 0
-7 -4 -4 -10z"/>
<path d="M2822 3375 c0 -11 4 -33 8 -50 l8 -30 0 30 c0 17 -3 39 -8 50 l-9 20
1 -20z"/>
<path d="M2941 3330 c0 -8 4 -24 9 -35 l9 -20 0 20 c0 11 -4 27 -9 35 -9 13
-10 13 -9 0z"/>
<path d="M2682 3305 c0 -16 2 -22 5 -12 2 9 2 23 0 30 -3 6 -5 -1 -5 -18z"/>
<path d="M3030 3267 c0 -2 7 -18 15 -33 13 -25 15 -26 15 -8 0 12 -7 27 -15
34 -8 7 -15 10 -15 7z"/>
<path d="M3062 3165 c0 -16 2 -22 5 -12 2 9 2 23 0 30 -3 6 -5 -1 -5 -18z"/>
<path d="M3303 3287 l-21 -23 23 -21 24 -20 20 21 21 22 -22 22 -23 21 -22
-22z"/>
<path d="M3464 3256 c150 -250 119 -490 -89 -685 -199 -186 -508 -281 -912
-281 -209 0 -359 17 -529 60 -65 16 -120 28 -122 25 -7 -7 243 -83 344 -104
161 -33 268 -43 459 -43 120 0 216 5 288 16 431 67 724 273 770 540 27 157
-48 341 -198 486 l-46 45 35 -59z"/>
<path d="M3688 3215 c35 -55 80 -150 98 -211 26 -87 24 -239 -5 -324 -92 -269
-404 -470 -828 -536 -143 -22 -444 -26 -593 -8 -138 16 -279 45 -415 84 -54
16 -101 27 -103 25 -6 -6 151 -63 273 -98 251 -73 389 -91 680 -92 251 0 306
6 485 51 455 114 711 394 650 713 -23 122 -91 247 -193 354 -38 40 -60 59 -49
42z"/>
<path d="M1981 3194 c0 -11 3 -14 6 -6 3 7 2 16 -1 19 -3 4 -6 -2 -5 -13z"/>
<path d="M2208 3100 c-3 -19 0 -30 7 -30 7 0 10 11 7 30 -2 17 -5 30 -7 30 -2
0 -5 -13 -7 -30z"/>
<path d="M2361 3104 c0 -11 3 -14 6 -6 3 7 2 16 -1 19 -3 4 -6 -2 -5 -13z"/>
<path d="M2082 3090 c0 -14 2 -19 5 -12 2 6 2 18 0 25 -3 6 -5 1 -5 -13z"/>
<path d="M2822 3070 c0 -14 2 -19 5 -12 2 6 2 18 0 25 -3 6 -5 1 -5 -13z"/>
<path d="M2948 3050 c-7 -24 -3 -38 8 -28 3 4 4 17 2 30 l-3 23 -7 -25z"/>
<path d="M2222 3040 c0 -14 2 -19 5 -12 2 6 2 18 0 25 -3 6 -5 1 -5 -13z"/>
<path d="M2085 3031 c-3 -5 -1 -12 5 -16 5 -3 10 1 10 9 0 18 -6 21 -15 7z"/>
<path d="M2671 3024 c0 -11 3 -14 6 -6 3 7 2 16 -1 19 -3 4 -6 -2 -5 -13z"/>
<path d="M1981 3014 c0 -11 3 -14 6 -6 3 7 2 16 -1 19 -3 4 -6 -2 -5 -13z"/>
<path d="M2804 2996 c-3 -21 -4 -39 -1 -42 3 -4 9 10 13 30 3 21 4 39 1 42 -3
4 -9 -10 -13 -30z"/>
<path d="M2225 3001 c-3 -5 -1 -12 5 -16 5 -3 10 1 10 9 0 18 -6 21 -15 7z"/>
<path d="M2941 2994 c0 -11 3 -14 6 -6 3 7 2 16 -1 19 -3 4 -6 -2 -5 -13z"/>
<path d="M3051 2987 c0 -10 -5 -16 -10 -13 -5 4 -7 -3 -4 -15 5 -19 7 -19 15
-5 5 9 7 24 5 34 -4 15 -5 15 -6 -1z"/>
<path d="M1970 2947 l-25 -32 27 20 c15 11 28 26 28 33 0 17 -1 15 -30 -21z"/>
<path d="M3121 2964 c0 -11 3 -14 6 -6 3 7 2 16 -1 19 -3 4 -6 -2 -5 -13z"/>
<path d="M2662 2950 c0 -14 2 -19 5 -12 2 6 2 18 0 25 -3 6 -5 1 -5 -13z"/>
<path d="M2926 2955 c-3 -8 -1 -15 4 -15 6 0 10 7 10 15 0 8 -2 15 -4 15 -2 0
-6 -7 -10 -15z"/>
<path d="M1921 2944 c0 -11 3 -14 6 -6 3 7 2 16 -1 19 -3 4 -6 -2 -5 -13z"/>
<path d="M2105 2951 c-3 -5 -1 -12 5 -16 5 -3 10 1 10 9 0 18 -6 21 -15 7z"/>
<path d="M2244 2932 c3 -19 7 -36 10 -40 9 -9 6 31 -5 53 -7 16 -8 13 -5 -13z"/>
<path d="M2376 2935 c4 -8 8 -15 10 -15 2 0 4 7 4 15 0 8 -4 15 -10 15 -5 0
-7 -7 -4 -15z"/>
<path d="M3060 2946 c0 -2 8 -10 18 -17 15 -13 16 -12 3 4 -13 16 -21 21 -21
13z"/>
<path d="M2786 2931 c-4 -7 -5 -15 -2 -18 9 -9 19 4 14 18 -4 11 -6 11 -12 0z"/>
<path d="M3106 2914 c-8 -22 -8 -44 2 -44 4 0 7 14 8 30 1 34 -1 37 -10 14z"/>
<path d="M3023 2906 c-6 -8 -9 -16 -7 -19 3 -3 -2 -19 -11 -37 -9 -18 -14 -34
-12 -36 2 -3 10 9 17 26 15 37 23 37 49 4 17 -21 18 -30 9 -48 -16 -31 -16
-31 -40 -10 -23 19 -23 19 -5 -2 9 -11 17 -26 17 -32 0 -6 5 -14 12 -18 7 -4
8 -3 4 5 -4 6 2 24 13 40 27 38 27 42 -9 76 -20 19 -28 35 -24 47 6 21 3 22
-13 4z"/>
<path d="M1930 2895 c0 -8 2 -15 4 -15 2 0 6 7 10 15 3 8 1 15 -4 15 -6 0 -10
-7 -10 -15z"/>
<path d="M2010 2893 c0 -13 5 -23 10 -23 13 0 13 11 0 30 -8 12 -10 11 -10 -7z"/>
<path d="M2652 2880 c0 -14 2 -19 5 -12 2 6 2 18 0 25 -3 6 -5 1 -5 -13z"/>
<path d="M2776 2874 c-4 -14 -5 -28 -3 -31 3 -2 8 8 11 23 4 14 5 28 3 31 -3
2 -8 -8 -11 -23z"/>
<path d="M2900 2869 c0 -5 5 -7 10 -4 6 3 10 8 10 11 0 2 -4 4 -10 4 -5 0 -10
-5 -10 -11z"/>
<path d="M1946 2855 c4 -11 7 -30 7 -43 -1 -26 0 -26 17 8 7 14 9 21 4 17 -4
-4 -14 3 -22 15 -10 18 -12 18 -6 3z"/>
<path d="M2035 2842 c5 -16 1 -30 -12 -45 l-18 -22 25 20 c14 11 27 21 29 22
1 1 -5 12 -14 25 l-17 23 7 -23z"/>
<path d="M2886 2835 c-9 -26 -7 -32 5 -12 6 10 9 21 6 23 -2 3 -7 -2 -11 -11z"/>
<path d="M1970 2791 c0 -6 4 -13 10 -16 6 -3 7 1 4 9 -7 18 -14 21 -14 7z"/>
<path d="M2060 2791 c0 -6 4 -13 10 -16 6 -3 7 1 4 9 -7 18 -14 21 -14 7z"/>
<path d="M2395 2791 c-3 -5 -1 -12 5 -16 5 -3 10 1 10 9 0 18 -6 21 -15 7z"/>
<path d="M2291 2780 c0 -8 6 -26 15 -40 l15 -25 -7 25 c-3 14 -10 32 -15 40
-7 13 -8 13 -8 0z"/>
<path d="M2630 2779 c0 -5 5 -7 10 -4 6 3 10 8 10 11 0 2 -4 4 -10 4 -5 0 -10
-5 -10 -11z"/>
<path d="M1995 2760 c-6 -9 30 -70 41 -70 3 0 -4 13 -16 30 -12 16 -18 34 -15
40 3 5 4 10 1 10 -3 0 -8 -5 -11 -10z"/>
<path d="M2730 2748 c0 -19 2 -20 10 -8 13 19 13 30 0 30 -5 0 -10 -10 -10
-22z"/>
<path d="M2834 2728 c-14 -28 -15 -31 -2 -20 14 11 31 52 22 52 -2 0 -11 -15
-20 -32z"/>
<path d="M2200 2732 c6 -13 14 -21 18 -18 3 4 -2 14 -12 24 -18 16 -18 16 -6
-6z"/>
<path d="M3002 2691 c-18 -22 -32 -43 -32 -46 0 -6 21 18 59 68 27 35 3 16
-27 -22z"/>
<path d="M2716 2705 c-9 -26 -7 -32 5 -12 6 10 9 21 6 23 -2 3 -7 -2 -11 -11z"/>
<path d="M2898 2678 c-30 -39 -31 -41 -6 -23 14 11 24 22 22 24 -2 2 3 13 13
23 9 10 14 18 10 18 -3 0 -20 -19 -39 -42z"/>
<path d="M2320 2705 c0 -5 5 -17 10 -25 5 -8 10 -10 10 -5 0 6 -5 17 -10 25
-5 8 -10 11 -10 5z"/>
<path d="M2126 2685 c4 -8 11 -15 16 -15 6 0 5 6 -2 15 -7 8 -14 15 -16 15 -2
0 -1 -7 2 -15z"/>
<path d="M2230 2680 c6 -11 13 -20 16 -20 2 0 0 9 -6 20 -6 11 -13 20 -16 20
-2 0 0 -9 6 -20z"/>
<path d="M2063 2652 c15 -19 24 -40 21 -50 -5 -14 -3 -14 6 2 11 16 7 23 -21
50 l-32 31 26 -33z"/>
<path d="M2428 2654 c-3 -11 1 -25 9 -32 15 -15 17 -1 4 32 -8 20 -8 20 -13 0z"/>
<path d="M2165 2640 c10 -11 20 -20 23 -20 3 0 -3 9 -13 20 -10 11 -20 20 -23
20 -3 0 3 -9 13 -20z"/>
<path d="M2779 2643 c-13 -16 -12 -17 4 -4 16 13 21 21 13 21 -2 0 -10 -8 -17
-17z"/>
<path d="M2937 2631 c3 -12 9 -21 14 -21 14 0 11 16 -5 29 -12 10 -13 8 -9 -8z"/>
<path d="M2677 2623 c-4 -3 -7 -11 -7 -17 0 -6 5 -5 12 2 6 6 9 14 7 17 -3 3
-9 2 -12 -2z"/>
<path d="M3009 2613 c-13 -16 -12 -17 4 -4 16 13 21 21 13 21 -2 0 -10 -8 -17
-17z"/>
<path d="M2745 2600 c-10 -11 -13 -20 -7 -20 6 0 16 9 22 20 6 11 9 20 7 20
-2 0 -12 -9 -22 -20z"/>
<path d="M2030 2607 c0 -2 14 -16 30 -32 17 -16 30 -24 30 -19 0 6 -13 20 -30
32 -16 13 -30 21 -30 19z"/>
<path d="M2305 2580 c10 -11 20 -20 22 -20 2 0 -2 9 -9 20 -7 11 -17 20 -22
20 -5 0 -1 -9 9 -20z"/>
<path d="M2237 2564 c2 -6 -3 -17 -12 -24 -8 -7 -15 -18 -15 -24 0 -6 9 0 19
13 10 13 22 21 27 18 6 -3 10 2 10 12 0 9 -8 17 -17 17 -9 0 -15 -5 -12 -12z"/>
<path d="M2390 2560 c6 -11 13 -20 16 -20 2 0 0 9 -6 20 -6 11 -13 20 -16 20
-2 0 0 -9 6 -20z"/>
<path d="M2774 2549 c-19 -22 -19 -22 4 -8 12 8 22 17 22 21 0 12 -6 9 -26
-13z"/>
<path d="M2200 2480 c0 -5 5 -10 11 -10 5 0 7 5 4 10 -3 6 -8 10 -11 10 -2 0
-4 -4 -4 -10z"/>
<path d="M3508 2106 c-57 -24 -148 -73 -148 -81 0 -3 26 8 58 24 31 16 75 34
97 41 56 18 144 16 183 -4 39 -20 74 -73 69 -103 -2 -12 0 -20 4 -17 15 9 10
88 -7 112 -40 57 -155 70 -256 28z"/>
<path d="M3500 2062 c-30 -10 -71 -29 -90 -41 -36 -24 -31 -23 55 11 59 24
147 28 192 9 36 -15 62 -49 65 -85 1 -14 6 -22 11 -19 17 11 -1 85 -27 112
-34 33 -126 39 -206 13z"/>
<path d="M3265 1949 c-6 -8 -9 -52 -7 -101 l3 -88 44 0 c53 0 63 12 63 75 -1
60 -11 75 -50 75 -17 0 -27 4 -23 10 3 6 2 10 -4 10 -5 0 -11 7 -13 17 -2 13
-5 14 -13 2z m64 -68 c18 -11 5 -31 -20 -31 -18 0 -26 20 -12 33 8 9 15 9 32
-2z m-5 -57 c25 -10 19 -34 -9 -34 -24 0 -34 18 -18 33 8 8 8 8 27 1z"/>
<path d="M1450 1847 c0 -36 5 -68 12 -75 18 -18 73 -14 91 6 23 25 24 132 2
132 -10 0 -15 -15 -17 -57 -3 -55 -4 -58 -30 -61 -28 -3 -28 -3 -28 57 0 48
-3 61 -15 61 -12 0 -15 -14 -15 -63z"/>
<path d="M1620 1835 c0 -59 3 -75 14 -75 11 0 16 15 18 52 l3 52 28 -52 c19
-35 35 -52 48 -52 17 0 19 7 19 75 0 43 -4 75 -10 75 -5 0 -10 -24 -10 -52 -1
-52 -1 -53 -18 -32 -9 12 -25 36 -34 53 -11 19 -25 31 -38 31 -18 0 -20 -6
-20 -75z"/>
<path d="M1800 1852 c0 -68 18 -92 66 -92 44 0 54 16 54 87 0 49 -3 63 -15 63
-12 0 -15 -13 -15 -61 0 -60 0 -60 -27 -57 -27 3 -28 6 -31 61 -2 42 -7 57
-17 57 -12 0 -15 -14 -15 -58z"/>
<path d="M1977 1903 c-17 -16 -5 -53 24 -76 38 -29 31 -49 -13 -40 -24 5 -30
3 -26 -8 6 -18 65 -24 84 -8 25 21 17 57 -17 74 -36 19 -33 41 5 37 18 -2 26
2 26 13 0 11 -11 15 -38 15 -21 0 -42 -3 -45 -7z"/>
<path d="M2108 1835 c-24 -69 -25 -75 -8 -75 10 0 20 9 23 20 3 14 14 20 32
20 18 0 29 -6 32 -20 3 -11 14 -20 24 -20 17 0 16 5 -8 75 -22 61 -31 75 -47
75 -17 0 -26 -15 -48 -75z m62 3 c0 -10 -7 -18 -15 -18 -17 0 -18 4 -8 38 4
18 8 20 14 10 5 -7 9 -21 9 -30z"/>
<path d="M2260 1835 l0 -75 36 0 c19 0 44 5 55 10 20 11 26 54 9 65 -6 4 -5
13 2 25 18 29 -6 50 -58 50 l-44 0 0 -75z m68 32 c2 -12 -3 -17 -17 -17 -12 0
-21 6 -21 13 0 31 32 34 38 4z m1 -46 c18 -11 5 -31 -20 -31 -12 0 -19 7 -19
20 0 21 16 26 39 11z"/>
<path d="M2410 1835 l0 -75 51 0 c57 0 66 23 11 28 -32 3 -32 3 -32 63 0 46
-3 59 -15 59 -12 0 -15 -15 -15 -75z"/>
<path d="M2540 1835 l0 -75 45 0 c33 0 45 4 45 15 0 9 -9 15 -25 15 -18 0 -25
5 -25 20 0 15 7 20 25 20 14 0 25 5 25 10 0 6 -11 10 -25 10 -18 0 -25 5 -25
20 0 15 7 20 25 20 14 0 25 5 25 10 0 6 -20 10 -45 10 l-45 0 0 -75z"/>
<path d="M2677 1904 c-15 -15 -6 -25 20 -22 41 4 40 -24 -1 -70 -20 -22 -36
-42 -36 -46 0 -3 25 -6 55 -6 42 0 55 3 55 15 0 10 -10 15 -32 15 l-32 0 28
29 c20 21 27 37 24 57 -3 25 -8 29 -38 32 -20 2 -39 0 -43 -4z"/>
<path d="M2800 1857 c0 -68 19 -97 65 -97 46 0 65 29 65 97 0 40 -4 53 -15 53
-11 0 -15 -12 -15 -44 0 -59 -8 -76 -35 -76 -25 0 -35 22 -35 83 0 26 -4 37
-15 37 -11 0 -15 -13 -15 -53z"/>
<path d="M2982 1898 c-20 -20 -14 -42 19 -69 36 -29 32 -53 -7 -43 -18 5 -24
2 -24 -10 0 -12 9 -16 34 -16 33 0 66 21 66 41 0 11 -29 40 -55 55 -26 14 -10
37 21 30 17 -5 24 -2 24 9 0 19 -60 21 -78 3z"/>
<path d="M3133 1893 c-3 -10 -14 -40 -25 -66 -10 -26 -18 -52 -18 -57 0 -19
29 -10 35 10 4 13 15 20 30 20 14 0 29 -9 35 -20 6 -11 17 -20 25 -20 19 0 20
-3 -11 79 -20 54 -31 71 -45 71 -11 0 -22 -8 -26 -17z m39 -48 c4 -20 1 -25
-14 -25 -14 0 -18 5 -14 16 3 9 6 22 6 30 0 23 17 7 22 -21z"/>
<path d="M3410 1835 l0 -75 51 0 c36 0 49 4 47 13 -3 6 -17 13 -31 15 -26 3
-27 6 -27 63 0 52 -2 59 -20 59 -18 0 -20 -7 -20 -75z"/>
<path d="M3550 1835 l0 -75 40 0 c29 0 40 4 40 15 0 9 -9 15 -25 15 -18 0 -25
5 -25 20 0 15 7 20 25 20 14 0 25 5 25 10 0 6 -11 10 -25 10 -18 0 -25 5 -25
20 0 15 7 20 25 20 14 0 25 5 25 10 0 6 -18 10 -40 10 l-40 0 0 -75z"/>
</g>
</svg>
